# xmcd
#
# Track frame offsets: 
#        150
#        20096
#        32626
#        41803
#        58768
#        72466
#        88479
#        102774
#        113317
#
# Disc length: 1651 seconds
#
# Revision: 0
# Processed by: cddbd v1.5.2PL0 Copyright (c) Steve Scherf et al.
# Submitted via: ExactAudioCopyFreeDBPlugin 1.0
#
DISCID=79067109
DTITLE=Milton Nascimento - Milton Nascimento
DYEAR=2014
DGENRE=Rhythmic Soul
TTITLE0=Sentinela
TTITLE1=Rosa Do Ventre
TTITLE2=Pescaria (Canoeiro) - O Mar E' Meu Chào
TTITLE3=Tarde
TTITLE4=Beco De Mota
TTITLE5=Pai Grande
TTITLE6=Quatro Luas
TTITLE7=Sunset Marquis 333 Los Angeles
TTITLE8=Aqui, Oh!
EXTD=
EXTT0=
EXTT1=
EXTT2=
EXTT3=
EXTT4=
EXTT5=
EXTT6=
EXTT7=
EXTT8=
PLAYORDER=
